<?xml version="1.0" encoding="UTF-8"?>
<!DOCTYPE svg PUBLIC "-//W3C//DTD SVG 1.1//EN" "http://www.w3.org/Graphics/SVG/1.1/DTD/svg11.dtd">
<svg xmlns="http://www.w3.org/2000/svg" version="1.1" width="400px" height="400px" style="shape-rendering:geometricPrecision; text-rendering:geometricPrecision; image-rendering:optimizeQuality; fill-rule:evenodd; clip-rule:evenodd" xmlns:xlink="http://www.w3.org/1999/xlink">
<g><path style="opacity:1" fill="#fefefe" d="M -0.5,-0.5 C 132.833,-0.5 266.167,-0.5 399.5,-0.5C 399.5,132.833 399.5,266.167 399.5,399.5C 266.167,399.5 132.833,399.5 -0.5,399.5C -0.5,266.167 -0.5,132.833 -0.5,-0.5 Z"/></g>
<g><path style="opacity:1" fill="#fde3e5" d="M 217.5,78.5 C 207.752,74.1091 197.752,73.4425 187.5,76.5C 187.62,75.4138 188.287,74.7472 189.5,74.5C 193.457,73.2858 197.457,72.2858 201.5,71.5C 203.402,73.1511 205.402,73.4845 207.5,72.5C 209.444,73.1892 211.444,73.6892 213.5,74C 214.699,75.6943 216.032,77.1943 217.5,78.5 Z"/></g>
<g><path style="opacity:1" fill="#ae1e2e" d="M 217.5,78.5 C 223.532,81.8476 229.532,85.1809 235.5,88.5C 233.801,88.6602 232.134,88.4935 230.5,88C 228.26,85.7138 225.593,84.2138 222.5,83.5C 210.911,75.798 198.578,74.4647 185.5,79.5C 184.5,79.5 183.5,79.5 182.5,79.5C 183.659,77.7497 185.326,76.7497 187.5,76.5C 197.752,73.4425 207.752,74.1091 217.5,78.5 Z"/></g>
<g><path style="opacity:1" fill="#cb031a" d="M 222.5,83.5 C 225.593,84.2138 228.26,85.7138 230.5,88C 232.134,88.4935 233.801,88.6602 235.5,88.5C 238.721,88.8961 241.388,90.2295 243.5,92.5C 243.369,93.3764 243.702,94.0431 244.5,94.5C 249.611,94.944 252.944,97.6107 254.5,102.5C 256.951,103.519 259.451,103.519 262,102.5C 266.855,104.614 271.689,106.614 276.5,108.5C 279.24,110.053 281.907,111.886 284.5,114C 288.956,115.643 293.289,117.476 297.5,119.5C 302.602,123.385 305.936,128.385 307.5,134.5C 308.408,141.521 309.408,148.521 310.5,155.5C 309.839,156.718 309.172,158.051 308.5,159.5C 307.914,159.291 307.414,158.957 307,158.5C 306.077,159.759 305.243,161.092 304.5,162.5C 299.461,157.975 293.961,153.975 288,150.5C 287.764,148.236 287.264,146.069 286.5,144C 284.5,143.667 282.5,143.333 280.5,143C 277.893,137.481 273.559,134.148 267.5,133C 265.787,131.622 264.453,129.955 263.5,128C 259.232,128.288 256.398,126.454 255,122.5C 253.795,121.929 252.628,121.262 251.5,120.5C 252.641,119.575 252.641,118.741 251.5,118C 249.831,116.331 247.831,115.498 245.5,115.5C 245.393,113.097 246.393,111.264 248.5,110C 245.249,107.548 241.749,107.048 238,108.5C 236.263,107.38 234.429,106.38 232.5,105.5C 231.289,104.726 231.289,103.893 232.5,103C 229.481,100.642 226.481,98.3085 223.5,96C 223.95,94.7147 224.617,93.548 225.5,92.5C 224.132,91.4063 222.965,91.7397 222,93.5C 219.31,92.0708 216.477,91.0708 213.5,90.5C 213.856,84.8143 216.856,82.4809 222.5,83.5 Z"/></g>
<g><path style="opacity:1" fill="#b71c28" d="M 243.5,92.5 C 244.873,92.3433 246.207,92.51 247.5,93C 257.407,97.8983 267.074,103.065 276.5,108.5C 271.689,106.614 266.855,104.614 262,102.5C 259.451,103.519 256.951,103.519 254.5,102.5C 252.944,97.6107 249.611,94.944 244.5,94.5C 243.702,94.0431 243.369,93.3764 243.5,92.5 Z"/></g>
<g><path style="opacity:1" fill="#cd2d57" d="M 140.5,102.5 C 139.554,106.36 141.054,107.36 145,105.5C 149.365,109.608 153.865,113.608 158.5,117.5C 159.167,118.833 159.833,120.167 160.5,121.5C 161.696,121.154 161.696,120.654 160.5,120C 161.333,119.833 162.167,119.667 163,119.5C 169.216,122.313 175.716,123.146 182.5,122C 180.519,121.395 180.185,120.395 181.5,119C 186.282,118.609 190.949,117.776 195.5,116.5C 189.42,120.873 182.753,124.207 175.5,126.5C 171.894,126.789 168.394,126.456 165,125.5C 160.723,126.283 160.556,127.783 164.5,130C 162.793,130.195 161.126,130.195 159.5,130C 155.854,136.713 151.02,137.88 145,133.5C 142.934,135.614 141.101,135.114 139.5,132C 138.852,130.56 138.519,129.06 138.5,127.5C 133.734,125.572 129.067,123.406 124.5,121C 123.966,118.027 122.3,115.361 119.5,113C 120.687,111.981 121.687,110.814 122.5,109.5C 126.996,108.503 130.996,106.503 134.5,103.5C 136.396,102.534 138.396,102.201 140.5,102.5 Z"/></g>
<g><path style="opacity:1" fill="#ca2346" d="M 181.5,79.5 C 179.104,83.7097 175.437,86.2097 170.5,87C 171.167,87.6667 171.833,88.3333 172.5,89C 168.366,90.2682 164.7,92.2682 161.5,95C 164.433,95.2958 167.266,94.7958 170,93.5C 170.833,93.8333 171.667,94.1667 172.5,94.5C 171.5,95.1667 170.5,95.8333 169.5,96.5C 173.695,102.208 178.362,107.541 183.5,112.5C 185.423,113.308 187.423,113.808 189.5,114C 189.167,114.333 188.833,114.667 188.5,115C 194.472,114.594 200.472,114.594 206.5,115C 207.934,117.747 210.267,119.247 213.5,119.5C 213.977,120.478 214.643,121.311 215.5,122C 219.156,122.079 222.49,123.079 225.5,125C 225.167,125.333 224.833,125.667 224.5,126C 227.726,127.199 231.059,127.699 234.5,127.5C 234.5,128.5 234.5,129.5 234.5,130.5C 238.238,131.209 241.571,132.876 244.5,135.5C 248.137,135.804 250.803,137.471 252.5,140.5C 234.592,132.749 216.925,124.416 199.5,115.5C 198.151,115.846 196.817,116.179 195.5,116.5C 190.949,117.776 186.282,118.609 181.5,119C 180.185,120.395 180.519,121.395 182.5,122C 175.716,123.146 169.216,122.313 163,119.5C 162.167,119.667 161.333,119.833 160.5,120C 161.696,120.654 161.696,121.154 160.5,121.5C 159.833,120.167 159.167,118.833 158.5,117.5C 153.865,113.608 149.365,109.608 145,105.5C 141.054,107.36 139.554,106.36 140.5,102.5C 145.033,101.245 148.366,98.5787 150.5,94.5C 160.611,89.2794 170.944,84.2794 181.5,79.5 Z"/></g>
<g><path style="opacity:1" fill="#c93966" d="M 150.5,94.5 C 148.366,98.5787 145.033,101.245 140.5,102.5C 138.396,102.201 136.396,102.534 134.5,103.5C 130.996,106.503 126.996,108.503 122.5,109.5C 121.687,110.814 120.687,111.981 119.5,113C 122.3,115.361 123.966,118.027 124.5,121C 129.067,123.406 133.734,125.572 138.5,127.5C 138.519,129.06 138.852,130.56 139.5,132C 141.101,135.114 142.934,135.614 145,133.5C 151.02,137.88 155.854,136.713 159.5,130C 161.126,130.195 162.793,130.195 164.5,130C 160.556,127.783 160.723,126.283 165,125.5C 168.394,126.456 171.894,126.789 175.5,126.5C 166.025,131.403 156.358,136.07 146.5,140.5C 142.875,139.758 139.208,139.591 135.5,140C 128.793,136.496 123.127,131.829 118.5,126C 115.637,124.601 112.637,123.601 109.5,123C 109.595,120.521 108.929,118.021 107.5,115.5C 114.117,111.187 121.117,107.354 128.5,104C 135.933,100.917 143.266,97.7499 150.5,94.5 Z"/></g>
<g><path style="opacity:1" fill="#cb1332" d="M 181.5,79.5 C 181.833,79.5 182.167,79.5 182.5,79.5C 183.5,79.5 184.5,79.5 185.5,79.5C 185.36,81.1238 186.027,82.2904 187.5,83C 184.833,84.3333 184.833,85.6667 187.5,87C 191.701,88.8589 195.368,91.5256 198.5,95C 203.188,96.0099 206.854,98.5099 209.5,102.5C 211.332,103.248 212.999,104.248 214.5,105.5C 216.686,110.357 220.353,113.357 225.5,114.5C 230.525,118.674 235.858,122.341 241.5,125.5C 243.415,127.071 244.415,129.071 244.5,131.5C 248.012,132.726 251.179,132.726 254,131.5C 254.756,133.809 254.256,135.809 252.5,137.5C 257.379,138.097 261.046,140.43 263.5,144.5C 262.833,144.5 262.167,144.5 261.5,144.5C 258.088,143.925 255.088,142.592 252.5,140.5C 250.803,137.471 248.137,135.804 244.5,135.5C 241.571,132.876 238.238,131.209 234.5,130.5C 234.5,129.5 234.5,128.5 234.5,127.5C 231.059,127.699 227.726,127.199 224.5,126C 224.833,125.667 225.167,125.333 225.5,125C 222.49,123.079 219.156,122.079 215.5,122C 214.643,121.311 213.977,120.478 213.5,119.5C 210.267,119.247 207.934,117.747 206.5,115C 200.472,114.594 194.472,114.594 188.5,115C 188.833,114.667 189.167,114.333 189.5,114C 187.423,113.808 185.423,113.308 183.5,112.5C 178.362,107.541 173.695,102.208 169.5,96.5C 170.5,95.8333 171.5,95.1667 172.5,94.5C 171.667,94.1667 170.833,93.8333 170,93.5C 167.266,94.7958 164.433,95.2958 161.5,95C 164.7,92.2682 168.366,90.2682 172.5,89C 171.833,88.3333 171.167,87.6667 170.5,87C 175.437,86.2097 179.104,83.7097 181.5,79.5 Z"/></g>
<g><path style="opacity:1" fill="#ad252e" d="M 276.5,108.5 C 284.479,110.479 291.479,114.146 297.5,119.5C 293.289,117.476 288.956,115.643 284.5,114C 281.907,111.886 279.24,110.053 276.5,108.5 Z"/></g>
<g><path style="opacity:1" fill="#fdfcfd" d="M 252.5,140.5 C 255.088,142.592 258.088,143.925 261.5,144.5C 264.226,146.617 267.06,148.617 270,150.5C 272.198,159.949 274.364,169.283 276.5,178.5C 277.373,182.983 278.373,187.317 279.5,191.5C 281.371,201.925 283.705,212.259 286.5,222.5C 286.423,224.299 285.923,225.966 285,227.5C 280.237,232.422 276.07,237.756 272.5,243.5C 268.408,247.258 265.074,251.591 262.5,256.5C 257.747,260.917 253.747,265.917 250.5,271.5C 246.155,275.847 242.155,280.514 238.5,285.5C 212.5,285.5 186.5,285.5 160.5,285.5C 160.167,285.5 159.833,285.5 159.5,285.5C 150.647,273.129 141.314,261.129 131.5,249.5C 131.167,248.5 130.5,247.833 129.5,247.5C 126.406,242.978 123.073,238.644 119.5,234.5C 117.518,231.19 115.185,228.19 112.5,225.5C 112.848,221.443 113.514,217.443 114.5,213.5C 115.802,207.612 117.136,201.612 118.5,195.5C 120.23,191.117 121.23,186.45 121.5,181.5C 122.738,179.786 123.405,177.786 123.5,175.5C 125.627,166.648 127.627,157.648 129.5,148.5C 135.315,146.092 140.982,143.425 146.5,140.5C 156.358,136.07 166.025,131.403 175.5,126.5C 182.753,124.207 189.42,120.873 195.5,116.5C 196.817,116.179 198.151,115.846 199.5,115.5C 216.925,124.416 234.592,132.749 252.5,140.5 Z"/></g>
<g><path style="opacity:1" fill="#b93c76" d="M 107.5,115.5 C 108.929,118.021 109.595,120.521 109.5,123C 112.637,123.601 115.637,124.601 118.5,126C 123.127,131.829 128.793,136.496 135.5,140C 139.208,139.591 142.875,139.758 146.5,140.5C 140.982,143.425 135.315,146.092 129.5,148.5C 130.341,146.621 130.675,144.621 130.5,142.5C 129.448,142.649 128.448,142.483 127.5,142C 125.733,139.61 123.4,137.943 120.5,137C 118.066,134.277 115.399,131.777 112.5,129.5C 111.571,128.311 111.238,126.978 111.5,125.5C 109.5,125.5 107.5,125.5 105.5,125.5C 105.891,122.162 104.724,121.162 102,122.5C 100.97,122.164 100.47,121.497 100.5,120.5C 101.992,117.677 104.326,116.01 107.5,115.5 Z"/></g>
<g><path style="opacity:1" fill="#934291" d="M 94.5,128.5 C 103.582,135.735 112.582,143.235 121.5,151C 123.081,151.707 124.581,152.54 126,153.5C 126.309,152.234 126.809,151.067 127.5,150C 127.167,149.667 126.833,149.333 126.5,149C 127.448,148.517 128.448,148.351 129.5,148.5C 127.627,157.648 125.627,166.648 123.5,175.5C 123.278,169.889 123.944,164.389 125.5,159C 121.674,155.583 117.341,152.917 112.5,151C 108.175,146.709 103.842,142.376 99.5,138C 97.6711,137.727 96.1711,136.893 95,135.5C 94.2904,136.973 93.1238,137.64 91.5,137.5C 91.1667,139.5 90.8333,141.5 90.5,143.5C 90.1667,143.5 89.8333,143.5 89.5,143.5C 90.0166,139.778 90.85,136.112 92,132.5C 92.2004,130.68 93.0337,129.347 94.5,128.5 Z"/></g>
<g><path style="opacity:1" fill="#cc0924" d="M 222.5,83.5 C 216.856,82.4809 213.856,84.8143 213.5,90.5C 216.477,91.0708 219.31,92.0708 222,93.5C 222.965,91.7397 224.132,91.4063 225.5,92.5C 224.617,93.548 223.95,94.7147 223.5,96C 226.481,98.3085 229.481,100.642 232.5,103C 231.289,103.893 231.289,104.726 232.5,105.5C 234.429,106.38 236.263,107.38 238,108.5C 241.749,107.048 245.249,107.548 248.5,110C 246.393,111.264 245.393,113.097 245.5,115.5C 247.831,115.498 249.831,116.331 251.5,118C 252.641,118.741 252.641,119.575 251.5,120.5C 252.628,121.262 253.795,121.929 255,122.5C 256.398,126.454 259.232,128.288 263.5,128C 264.453,129.955 265.787,131.622 267.5,133C 273.559,134.148 277.893,137.481 280.5,143C 282.5,143.333 284.5,143.667 286.5,144C 287.264,146.069 287.764,148.236 288,150.5C 293.961,153.975 299.461,157.975 304.5,162.5C 305.243,161.092 306.077,159.759 307,158.5C 307.414,158.957 307.914,159.291 308.5,159.5C 309.172,158.051 309.839,156.718 310.5,155.5C 313.213,163.022 315.213,170.689 316.5,178.5C 316.752,181.32 316.252,183.986 315,186.5C 314.077,185.241 313.243,183.908 312.5,182.5C 311.614,183.325 311.281,184.325 311.5,185.5C 308.854,185.108 306.354,185.108 304,185.5C 303.667,182.5 303.333,179.5 303,176.5C 298.53,176.175 295.697,173.842 294.5,169.5C 292.54,168.277 290.707,166.944 289,165.5C 288.333,166.167 287.667,166.833 287,167.5C 286.261,165.779 285.427,164.113 284.5,162.5C 282.554,164.087 281.054,163.754 280,161.5C 279.692,162.308 279.192,162.975 278.5,163.5C 277.543,160.72 276.376,158.053 275,155.5C 274.292,154.619 273.458,153.953 272.5,153.5C 271.537,148.537 268.537,145.537 263.5,144.5C 261.046,140.43 257.379,138.097 252.5,137.5C 254.256,135.809 254.756,133.809 254,131.5C 251.179,132.726 248.012,132.726 244.5,131.5C 244.415,129.071 243.415,127.071 241.5,125.5C 235.858,122.341 230.525,118.674 225.5,114.5C 220.353,113.357 216.686,110.357 214.5,105.5C 212.999,104.248 211.332,103.248 209.5,102.5C 206.854,98.5099 203.188,96.0099 198.5,95C 195.368,91.5256 191.701,88.8589 187.5,87C 184.833,85.6667 184.833,84.3333 187.5,83C 186.027,82.2904 185.36,81.1238 185.5,79.5C 198.578,74.4647 210.911,75.798 222.5,83.5 Z"/></g>
<g><path style="opacity:1" fill="#a63b84" d="M 100.5,120.5 C 100.47,121.497 100.97,122.164 102,122.5C 104.724,121.162 105.891,122.162 105.5,125.5C 107.5,125.5 109.5,125.5 111.5,125.5C 111.238,126.978 111.571,128.311 112.5,129.5C 115.399,131.777 118.066,134.277 120.5,137C 123.4,137.943 125.733,139.61 127.5,142C 128.448,142.483 129.448,142.649 130.5,142.5C 130.675,144.621 130.341,146.621 129.5,148.5C 128.448,148.351 127.448,148.517 126.5,149C 126.833,149.333 127.167,149.667 127.5,150C 126.809,151.067 126.309,152.234 126,153.5C 124.581,152.54 123.081,151.707 121.5,151C 112.582,143.235 103.582,135.735 94.5,128.5C 95.5389,125.079 97.5389,122.412 100.5,120.5 Z"/></g>
<g><path style="opacity:1" fill="#863d9b" d="M 123.5,175.5 C 123.405,177.786 122.738,179.786 121.5,181.5C 121.749,178.998 122.083,176.498 122.5,174C 122.027,171.189 120.694,168.856 118.5,167C 117.678,164.566 117.344,162.066 117.5,159.5C 116.167,159.5 114.833,159.5 113.5,159.5C 112.978,166.136 112.145,166.136 111,159.5C 107.5,156.333 104,153.167 100.5,150C 98.3496,148.589 96.0163,147.755 93.5,147.5C 93.5,146.167 93.5,144.833 93.5,143.5C 92.5,143.5 91.5,143.5 90.5,143.5C 90.8333,141.5 91.1667,139.5 91.5,137.5C 93.1238,137.64 94.2904,136.973 95,135.5C 96.1711,136.893 97.6711,137.727 99.5,138C 103.842,142.376 108.175,146.709 112.5,151C 117.341,152.917 121.674,155.583 125.5,159C 123.944,164.389 123.278,169.889 123.5,175.5 Z"/></g>
<g><path style="opacity:1" fill="#bc3447" d="M 261.5,144.5 C 262.167,144.5 262.833,144.5 263.5,144.5C 268.537,145.537 271.537,148.537 272.5,153.5C 274.661,159.939 275.995,166.606 276.5,173.5C 276.5,175.167 276.5,176.833 276.5,178.5C 274.364,169.283 272.198,159.949 270,150.5C 267.06,148.617 264.226,146.617 261.5,144.5 Z"/></g>
<g><path style="opacity:1" fill="#7240a8" d="M 89.5,143.5 C 89.8333,143.5 90.1667,143.5 90.5,143.5C 91.5,143.5 92.5,143.5 93.5,143.5C 93.5,144.833 93.5,146.167 93.5,147.5C 96.0163,147.755 98.3496,148.589 100.5,150C 104,153.167 107.5,156.333 111,159.5C 112.145,166.136 112.978,166.136 113.5,159.5C 114.833,159.5 116.167,159.5 117.5,159.5C 117.344,162.066 117.678,164.566 118.5,167C 120.694,168.856 122.027,171.189 122.5,174C 122.083,176.498 121.749,178.998 121.5,181.5C 121.23,186.45 120.23,191.117 118.5,195.5C 118.5,191.833 118.5,188.167 118.5,184.5C 118.351,183.448 118.517,182.448 119,181.5C 119.333,181.833 119.667,182.167 120,182.5C 120.497,180.19 120.663,177.857 120.5,175.5C 119.5,175.5 118.5,175.5 117.5,175.5C 117.762,176.978 117.429,178.311 116.5,179.5C 115.481,177.049 115.481,174.549 116.5,172C 116.397,167.986 115.064,167.153 112.5,169.5C 107.934,167.269 103.934,164.269 100.5,160.5C 98.677,159.253 96.677,158.586 94.5,158.5C 94.6567,157.127 94.49,155.793 94,154.5C 92.3066,153.816 90.8066,152.816 89.5,151.5C 88.795,154.089 88.795,156.756 89.5,159.5C 87.8362,161.408 86.1695,163.408 84.5,165.5C 85.8027,157.962 87.4694,150.629 89.5,143.5 Z"/></g>
<g><path style="opacity:1" fill="#6665fa" d="M 203.5,160.5 C 204.246,162.343 205.579,163.676 207.5,164.5C 206.91,165.799 205.91,166.632 204.5,167C 205.766,167.309 206.933,167.809 208,168.5C 208.333,167.833 208.667,167.167 209,166.5C 211.036,167.102 212.87,168.102 214.5,169.5C 215.607,168.978 216.774,168.645 218,168.5C 220.597,170.199 223.43,171.199 226.5,171.5C 226.833,171.5 227.167,171.5 227.5,171.5C 229.793,173.631 232.126,175.631 234.5,177.5C 232.544,178.492 230.544,179.492 228.5,180.5C 225.368,180.784 222.368,181.617 219.5,183C 214.048,186.082 208.715,189.249 203.5,192.5C 199.614,194.256 196.281,193.59 193.5,190.5C 191.547,189.844 189.547,189.511 187.5,189.5C 186.426,188.115 185.093,186.949 183.5,186C 186.146,185.503 188.813,185.336 191.5,185.5C 191.762,184.022 191.429,182.689 190.5,181.5C 189.312,182.84 187.812,183.507 186,183.5C 182.856,181.216 179.356,179.549 175.5,178.5C 173.944,179.547 172.277,180.214 170.5,180.5C 170.586,178.323 171.253,176.323 172.5,174.5C 170.238,172.492 170.738,172.159 174,173.5C 177.105,170.707 180.272,168.04 183.5,165.5C 185.467,165.261 187.301,165.594 189,166.5C 190.188,165.437 190.688,164.103 190.5,162.5C 193.504,161.911 196.337,160.911 199,159.5C 200.533,159.773 202.033,160.106 203.5,160.5 Z"/></g>
<g><path style="opacity:1" fill="#7373e1" d="M 203.5,160.5 C 202.033,160.106 200.533,159.773 199,159.5C 196.337,160.911 193.504,161.911 190.5,162.5C 190.688,164.103 190.188,165.437 189,166.5C 187.301,165.594 185.467,165.261 183.5,165.5C 188.386,162.473 193.552,159.806 199,157.5C 200.981,157.899 202.481,158.899 203.5,160.5 Z"/></g>
<g><path style="opacity:1" fill="#716de9" d="M 203.5,160.5 C 211.876,162.923 219.542,166.59 226.5,171.5C 223.43,171.199 220.597,170.199 218,168.5C 216.774,168.645 215.607,168.978 214.5,169.5C 212.87,168.102 211.036,167.102 209,166.5C 208.667,167.167 208.333,167.833 208,168.5C 206.933,167.809 205.766,167.309 204.5,167C 205.91,166.632 206.91,165.799 207.5,164.5C 205.579,163.676 204.246,162.343 203.5,160.5 Z"/></g>
<g><path style="opacity:1" fill="#633eb5" d="M 118.5,184.5 C 117.849,183.909 117.182,183.243 116.5,182.5C 115.833,183.833 115.167,185.167 114.5,186.5C 113.762,182.74 112.428,179.24 110.5,176C 106.21,176.564 104.043,174.731 104,170.5C 101.768,169.592 99.6013,168.592 97.5,167.5C 96.3527,167.818 95.5194,168.484 95,169.5C 93.8372,167.715 93.1705,165.715 93,163.5C 91.9887,162.663 90.8221,162.33 89.5,162.5C 89.5,161.5 89.5,160.5 89.5,159.5C 88.795,156.756 88.795,154.089 89.5,151.5C 90.8066,152.816 92.3066,153.816 94,154.5C 94.49,155.793 94.6567,157.127 94.5,158.5C 96.677,158.586 98.677,159.253 100.5,160.5C 103.934,164.269 107.934,167.269 112.5,169.5C 115.064,167.153 116.397,167.986 116.5,172C 115.481,174.549 115.481,177.049 116.5,179.5C 117.429,178.311 117.762,176.978 117.5,175.5C 118.5,175.5 119.5,175.5 120.5,175.5C 120.663,177.857 120.497,180.19 120,182.5C 119.667,182.167 119.333,181.833 119,181.5C 118.517,182.448 118.351,183.448 118.5,184.5 Z"/></g>
<g><path style="opacity:1" fill="#5140c1" d="M 89.5,159.5 C 89.5,160.5 89.5,161.5 89.5,162.5C 90.8221,162.33 91.9887,162.663 93,163.5C 93.1705,165.715 93.8372,167.715 95,169.5C 95.5194,168.484 96.3527,167.818 97.5,167.5C 99.6013,168.592 101.768,169.592 104,170.5C 104.043,174.731 106.21,176.564 110.5,176C 112.428,179.24 113.762,182.74 114.5,186.5C 115.167,185.167 115.833,183.833 116.5,182.5C 117.182,183.243 117.849,183.909 118.5,184.5C 118.5,188.167 118.5,191.833 118.5,195.5C 117.136,201.612 115.802,207.612 114.5,213.5C 114.204,207.216 114.871,201.049 116.5,195C 115.428,192.079 114.094,189.246 112.5,186.5C 101.119,183.424 94.4524,176.091 92.5,164.5C 91.5,164.5 90.5,164.5 89.5,164.5C 90.2856,169.715 91.9522,174.715 94.5,179.5C 94.1207,181.213 93.1207,182.213 91.5,182.5C 92.3029,178.831 91.1362,176.164 88,174.5C 87.3333,173.167 86.6667,171.833 86,170.5C 85.8871,172.974 84.8871,174.974 83,176.5C 82.6667,178.833 82.3333,181.167 82,183.5C 81.6174,184.056 81.1174,184.389 80.5,184.5C 81.2186,182.236 81.552,179.903 81.5,177.5C 82.1876,173.416 83.1876,169.416 84.5,165.5C 86.1695,163.408 87.8362,161.408 89.5,159.5 Z"/></g>
<g><path style="opacity:1" fill="#7f7cde" d="M 227.5,171.5 C 230.262,172.38 232.929,173.546 235.5,175C 236.252,175.671 236.586,176.504 236.5,177.5C 235.833,177.5 235.167,177.5 234.5,177.5C 232.126,175.631 229.793,173.631 227.5,171.5 Z"/></g>
<g><path style="opacity:1" fill="#b92b39" d="M 307.5,134.5 C 308.6,136.277 309.434,138.277 310,140.5C 312.844,154.913 316.011,169.246 319.5,183.5C 318.313,181.928 317.313,180.261 316.5,178.5C 315.213,170.689 313.213,163.022 310.5,155.5C 309.408,148.521 308.408,141.521 307.5,134.5 Z"/></g>
<g><path style="opacity:1" fill="#cd1433" d="M 272.5,153.5 C 273.458,153.953 274.292,154.619 275,155.5C 276.376,158.053 277.543,160.72 278.5,163.5C 279.192,162.975 279.692,162.308 280,161.5C 281.054,163.754 282.554,164.087 284.5,162.5C 285.427,164.113 286.261,165.779 287,167.5C 287.667,166.833 288.333,166.167 289,165.5C 290.707,166.944 292.54,168.277 294.5,169.5C 295.697,173.842 298.53,176.175 303,176.5C 303.333,179.5 303.667,182.5 304,185.5C 306.354,185.108 308.854,185.108 311.5,185.5C 311.281,184.325 311.614,183.325 312.5,182.5C 313.243,183.908 314.077,185.241 315,186.5C 316.252,183.986 316.752,181.32 316.5,178.5C 317.313,180.261 318.313,181.928 319.5,183.5C 319.5,184.833 319.5,186.167 319.5,187.5C 320.937,199.099 321.77,210.766 322,222.5C 323.039,223.244 323.539,224.244 323.5,225.5C 322.265,225.279 321.265,224.612 320.5,223.5C 319.402,220.247 318.736,216.914 318.5,213.5C 314.591,211.6 310.925,209.267 307.5,206.5C 304.855,202.721 301.855,199.221 298.5,196C 293.645,195.489 290.145,192.989 288,188.5C 287.586,188.957 287.086,189.291 286.5,189.5C 286.005,186.53 284.505,184.196 282,182.5C 281.667,183.167 281.333,183.833 281,184.5C 279.756,181.362 279.089,178.028 279,174.5C 278.329,173.748 277.496,173.414 276.5,173.5C 275.995,166.606 274.661,159.939 272.5,153.5 Z"/></g>
<g><path style="opacity:1" fill="#7c88d1" d="M 81.5,177.5 C 81.552,179.903 81.2186,182.236 80.5,184.5C 80.1667,184.5 79.8333,184.5 79.5,184.5C 79.7215,181.933 80.3882,179.599 81.5,177.5 Z"/></g>
<g><path style="opacity:1" fill="#6d6bed" d="M 183.5,165.5 C 180.272,168.04 177.105,170.707 174,173.5C 170.738,172.159 170.238,172.492 172.5,174.5C 171.253,176.323 170.586,178.323 170.5,180.5C 172.277,180.214 173.944,179.547 175.5,178.5C 179.356,179.549 182.856,181.216 186,183.5C 187.812,183.507 189.312,182.84 190.5,181.5C 191.429,182.689 191.762,184.022 191.5,185.5C 188.813,185.336 186.146,185.503 183.5,186C 185.093,186.949 186.426,188.115 187.5,189.5C 179.731,186.296 172.065,182.796 164.5,179C 162.937,178.241 161.937,177.074 161.5,175.5C 168.859,172.152 176.193,168.819 183.5,165.5 Z"/></g>
<g><path style="opacity:1" fill="#3b41d1" d="M 114.5,213.5 C 113.514,217.443 112.848,221.443 112.5,225.5C 112.167,225.5 111.833,225.5 111.5,225.5C 111.298,217.701 111.798,210.035 113,202.5C 107.074,200.916 102.574,197.416 99.5,192C 93.9515,191.46 91.2848,188.293 91.5,182.5C 93.1207,182.213 94.1207,181.213 94.5,179.5C 91.9522,174.715 90.2856,169.715 89.5,164.5C 90.5,164.5 91.5,164.5 92.5,164.5C 94.4524,176.091 101.119,183.424 112.5,186.5C 114.094,189.246 115.428,192.079 116.5,195C 114.871,201.049 114.204,207.216 114.5,213.5 Z"/></g>
<g><path style="opacity:1" fill="#2a41e0" d="M 91.5,182.5 C 91.2848,188.293 93.9515,191.46 99.5,192C 102.574,197.416 107.074,200.916 113,202.5C 111.798,210.035 111.298,217.701 111.5,225.5C 110.834,220.983 110.167,216.317 109.5,211.5C 105.876,208.914 103.042,205.58 101,201.5C 95.9296,200.361 91.4296,197.694 87.5,193.5C 85.604,192.534 83.604,192.201 81.5,192.5C 81.7678,190.901 81.4345,189.568 80.5,188.5C 80.5,187.167 80.5,185.833 80.5,184.5C 81.1174,184.389 81.6174,184.056 82,183.5C 82.3333,181.167 82.6667,178.833 83,176.5C 84.8871,174.974 85.8871,172.974 86,170.5C 86.6667,171.833 87.3333,173.167 88,174.5C 91.1362,176.164 92.3029,178.831 91.5,182.5 Z"/></g>
<g><path style="opacity:1" fill="#6665fb" d="M 195.5,205.5 C 195.5,206.167 195.5,206.833 195.5,207.5C 194.505,219.655 194.171,231.989 194.5,244.5C 193.5,244.5 192.5,244.5 191.5,244.5C 187.227,241.926 182.894,239.26 178.5,236.5C 174.664,234.662 170.664,233.328 166.5,232.5C 164.597,232.204 162.93,231.537 161.5,230.5C 160.5,229.167 159.5,227.833 158.5,226.5C 158.333,212.829 158.5,199.163 159,185.5C 160.011,184.663 161.178,184.33 162.5,184.5C 163.199,186.995 164.199,189.328 165.5,191.5C 167.484,191.617 169.15,190.95 170.5,189.5C 172.56,191.196 174.893,192.363 177.5,193C 174.972,193.998 174.972,194.831 177.5,195.5C 183.463,194.472 188.463,196.306 192.5,201C 192.149,203.193 191.149,205.026 189.5,206.5C 190.868,207.594 192.035,207.26 193,205.5C 193.333,203.833 193.667,202.167 194,200.5C 194.198,202.382 194.698,204.048 195.5,205.5 Z"/></g>
<g><path style="opacity:1" fill="#6665fb" d="M 240.5,228.5 C 236.688,229.907 233.022,231.574 229.5,233.5C 222.905,233.973 217.238,236.473 212.5,241C 209.23,242.459 205.897,243.626 202.5,244.5C 202.5,229.833 202.5,215.167 202.5,200.5C 204.484,200.617 206.15,199.95 207.5,198.5C 208.086,198.709 208.586,199.043 209,199.5C 211.168,196.371 214.168,194.704 218,194.5C 219.194,192.976 220.694,191.81 222.5,191C 228.247,188.074 234.247,185.908 240.5,184.5C 240.5,199.167 240.5,213.833 240.5,228.5 Z"/></g>
<g><path style="opacity:1" fill="#f1f3fd" d="M 161.5,175.5 C 161.937,177.074 162.937,178.241 164.5,179C 172.065,182.796 179.731,186.296 187.5,189.5C 191.335,191.336 195.168,193.336 199,195.5C 200.981,195.101 202.481,194.101 203.5,192.5C 212.299,189.266 220.632,185.266 228.5,180.5C 230.544,179.492 232.544,178.492 234.5,177.5C 235.167,177.5 235.833,177.5 236.5,177.5C 236.5,179.5 237.5,180.5 239.5,180.5C 227.005,187.218 214.338,193.551 201.5,199.5C 201.5,201.167 201.5,202.833 201.5,204.5C 200.85,202.553 199.683,200.887 198,199.5C 197.831,215.672 197.331,231.672 196.5,247.5C 196.83,231.325 196.496,215.325 195.5,199.5C 183.987,193.577 172.32,187.91 160.5,182.5C 159.739,181.609 158.739,180.942 157.5,180.5C 156.501,195.485 156.167,210.485 156.5,225.5C 155.711,225.217 155.044,224.717 154.5,224C 155.672,209.172 155.672,194.506 154.5,180C 156.301,179.683 156.634,179.016 155.5,178C 157.661,177.415 159.661,176.582 161.5,175.5 Z"/></g>
<g><path style="opacity:1" fill="#7471d8" d="M 228.5,180.5 C 220.632,185.266 212.299,189.266 203.5,192.5C 208.715,189.249 214.048,186.082 219.5,183C 222.368,181.617 225.368,180.784 228.5,180.5 Z"/></g>
<g><path style="opacity:1" fill="#8889ce" d="M 160.5,182.5 C 159.5,182.5 158.5,182.5 157.5,182.5C 157.171,197.343 157.504,212.01 158.5,226.5C 159.5,227.833 160.5,229.167 161.5,230.5C 158.665,229.931 156.999,228.264 156.5,225.5C 156.167,210.485 156.501,195.485 157.5,180.5C 158.739,180.942 159.739,181.609 160.5,182.5 Z"/></g>
<g><path style="opacity:1" fill="#6c6be6" d="M 160.5,182.5 C 172.32,187.91 183.987,193.577 195.5,199.5C 195.5,201.5 195.5,203.5 195.5,205.5C 194.698,204.048 194.198,202.382 194,200.5C 193.667,202.167 193.333,203.833 193,205.5C 192.035,207.26 190.868,207.594 189.5,206.5C 191.149,205.026 192.149,203.193 192.5,201C 188.463,196.306 183.463,194.472 177.5,195.5C 174.972,194.831 174.972,193.998 177.5,193C 174.893,192.363 172.56,191.196 170.5,189.5C 169.15,190.95 167.484,191.617 165.5,191.5C 164.199,189.328 163.199,186.995 162.5,184.5C 161.178,184.33 160.011,184.663 159,185.5C 158.5,199.163 158.333,212.829 158.5,226.5C 157.504,212.01 157.171,197.343 157.5,182.5C 158.5,182.5 159.5,182.5 160.5,182.5 Z"/></g>
<g><path style="opacity:1" fill="#7875d9" d="M 187.5,189.5 C 189.547,189.511 191.547,189.844 193.5,190.5C 196.281,193.59 199.614,194.256 203.5,192.5C 202.481,194.101 200.981,195.101 199,195.5C 195.168,193.336 191.335,191.336 187.5,189.5 Z"/></g>
<g><path style="opacity:1" fill="#716ed9" d="M 239.5,180.5 C 240.831,188.138 241.498,196.138 241.5,204.5C 241.5,212.674 241.166,220.674 240.5,228.5C 240.5,213.833 240.5,199.167 240.5,184.5C 234.247,185.908 228.247,188.074 222.5,191C 220.694,191.81 219.194,192.976 218,194.5C 214.168,194.704 211.168,196.371 209,199.5C 208.586,199.043 208.086,198.709 207.5,198.5C 206.15,199.95 204.484,200.617 202.5,200.5C 202.5,215.167 202.5,229.833 202.5,244.5C 205.897,243.626 209.23,242.459 212.5,241C 217.238,236.473 222.905,233.973 229.5,233.5C 220.558,238.066 211.558,242.733 202.5,247.5C 201.501,233.182 201.167,218.849 201.5,204.5C 201.5,202.833 201.5,201.167 201.5,199.5C 214.338,193.551 227.005,187.218 239.5,180.5 Z"/></g>
<g><path style="opacity:1" fill="#0143fd" d="M 121.5,239.5 C 123.806,242.473 126.473,245.14 129.5,247.5C 130.5,247.833 131.167,248.5 131.5,249.5C 131.539,250.583 131.873,251.583 132.5,252.5C 130.238,253.345 129.571,254.678 130.5,256.5C 128.085,258.009 127.919,259.676 130,261.5C 131.578,256.846 133.578,256.513 136,260.5C 136.333,260.167 136.667,259.833 137,259.5C 137.483,260.448 137.649,261.448 137.5,262.5C 139.346,262.222 140.68,262.889 141.5,264.5C 140.691,266.071 140.357,267.738 140.5,269.5C 142.143,269.48 143.476,270.147 144.5,271.5C 146.529,270.371 146.863,270.871 145.5,273C 148.822,274.572 151.656,276.739 154,279.5C 154.384,281.197 154.218,282.863 153.5,284.5C 154.693,286.754 156.36,287.42 158.5,286.5C 159.308,286.808 159.975,287.308 160.5,288C 168.827,288.5 177.16,288.666 185.5,288.5C 185.281,289.675 185.614,290.675 186.5,291.5C 198.431,298.064 209.431,305.897 219.5,315C 218.692,315.308 218.025,315.808 217.5,316.5C 219.043,319.167 221.043,320.167 223.5,319.5C 224.938,319.719 226.271,320.219 227.5,321C 200.761,321.176 174.095,321.676 147.5,322.5C 143.886,322.259 140.886,320.759 138.5,318C 138.833,317.667 139.167,317.333 139.5,317C 137.527,316.505 135.527,316.338 133.5,316.5C 127.817,310.146 122.484,303.48 117.5,296.5C 118.555,291.251 116.555,288.251 111.5,287.5C 111.5,286.167 111.5,284.833 111.5,283.5C 110.448,283.649 109.448,283.483 108.5,283C 107.468,281.373 106.134,280.207 104.5,279.5C 103.178,276.976 102.012,274.31 101,271.5C 96.2541,268.331 93.2541,263.997 92,258.5C 91.586,258.957 91.086,259.291 90.5,259.5C 86.7802,255.753 83.2802,251.753 80,247.5C 79.2572,244.603 78.7572,241.603 78.5,238.5C 77.8333,239.5 77.1667,240.5 76.5,241.5C 75.3628,238.247 74.0294,235.247 72.5,232.5C 72.3343,228.154 72.501,223.821 73,219.5C 74.5587,214.839 75.7254,210.173 76.5,205.5C 78.0682,203.189 78.9016,200.522 79,197.5C 81.2796,199.037 83.7796,200.203 86.5,201C 87.2065,202.91 88.2065,204.91 89.5,207C 91.4727,207.495 93.4727,207.662 95.5,207.5C 95.4208,208.93 95.7542,210.264 96.5,211.5C 99.1664,212.039 101.333,213.372 103,215.5C 104.29,217.792 105.957,219.792 108,221.5C 108.333,222.833 108.667,224.167 109,225.5C 111.161,226.995 112.995,228.828 114.5,231C 112.607,235.202 113.607,238.535 117.5,241C 116.046,244.61 117.046,247.443 120.5,249.5C 121.259,245.978 121.592,242.645 121.5,239.5 Z"/></g>
<g><path style="opacity:1" fill="#1443ef" d="M 80.5,188.5 C 81.4345,189.568 81.7678,190.901 81.5,192.5C 83.604,192.201 85.604,192.534 87.5,193.5C 91.4296,197.694 95.9296,200.361 101,201.5C 103.042,205.58 105.876,208.914 109.5,211.5C 110.167,216.317 110.834,220.983 111.5,225.5C 111.833,225.5 112.167,225.5 112.5,225.5C 115.185,228.19 117.518,231.19 119.5,234.5C 119.893,236.284 120.559,237.95 121.5,239.5C 121.592,242.645 121.259,245.978 120.5,249.5C 117.046,247.443 116.046,244.61 117.5,241C 113.607,238.535 112.607,235.202 114.5,231C 112.995,228.828 111.161,226.995 109,225.5C 108.667,224.167 108.333,222.833 108,221.5C 105.957,219.792 104.29,217.792 103,215.5C 101.333,213.372 99.1664,212.039 96.5,211.5C 95.7542,210.264 95.4208,208.93 95.5,207.5C 93.4727,207.662 91.4727,207.495 89.5,207C 88.2065,204.91 87.2065,202.91 86.5,201C 83.7796,200.203 81.2796,199.037 79,197.5C 78.9016,200.522 78.0682,203.189 76.5,205.5C 77.3099,199.672 78.6432,194.005 80.5,188.5 Z"/></g>
<g><path style="opacity:1" fill="#706fbf" d="M 195.5,199.5 C 196.496,215.325 196.83,231.325 196.5,247.5C 194.847,247.34 193.514,246.674 192.5,245.5C 193.5,245.5 194.5,245.5 195.5,245.5C 195.5,232.833 195.5,220.167 195.5,207.5C 195.5,206.833 195.5,206.167 195.5,205.5C 195.5,203.5 195.5,201.5 195.5,199.5 Z"/></g>
<g><path style="opacity:1" fill="#6a6be5" d="M 195.5,207.5 C 195.5,220.167 195.5,232.833 195.5,245.5C 194.5,245.5 193.5,245.5 192.5,245.5C 191.833,245.5 191.5,245.167 191.5,244.5C 192.5,244.5 193.5,244.5 194.5,244.5C 194.171,231.989 194.505,219.655 195.5,207.5 Z"/></g>
<g><path style="opacity:1" fill="#cd1e42" d="M 276.5,173.5 C 277.496,173.414 278.329,173.748 279,174.5C 279.089,178.028 279.756,181.362 281,184.5C 281.333,183.833 281.667,183.167 282,182.5C 284.505,184.196 286.005,186.53 286.5,189.5C 287.086,189.291 287.586,188.957 288,188.5C 290.145,192.989 293.645,195.489 298.5,196C 301.855,199.221 304.855,202.721 307.5,206.5C 310.925,209.267 314.591,211.6 318.5,213.5C 318.736,216.914 319.402,220.247 320.5,223.5C 321.265,224.612 322.265,225.279 323.5,225.5C 323.477,228.457 322.477,230.957 320.5,233C 320.957,233.414 321.291,233.914 321.5,234.5C 320.478,235.354 319.645,236.354 319,237.5C 313.13,231.122 306.296,226.122 298.5,222.5C 296.856,219.689 294.69,217.356 292,215.5C 291.51,214.207 291.343,212.873 291.5,211.5C 289.408,211.439 287.908,210.439 287,208.5C 285.881,201.782 284.547,195.115 283,188.5C 279.763,185.636 277.596,182.303 276.5,178.5C 276.5,176.833 276.5,175.167 276.5,173.5 Z"/></g>
<g><path style="opacity:1" fill="#ca264a" d="M 276.5,178.5 C 277.596,182.303 279.763,185.636 283,188.5C 284.547,195.115 285.881,201.782 287,208.5C 287.908,210.439 289.408,211.439 291.5,211.5C 291.343,212.873 291.51,214.207 292,215.5C 294.69,217.356 296.856,219.689 298.5,222.5C 306.296,226.122 313.13,231.122 319,237.5C 319.645,236.354 320.478,235.354 321.5,234.5C 321.291,233.914 320.957,233.414 320.5,233C 322.477,230.957 323.477,228.457 323.5,225.5C 323.539,224.244 323.039,223.244 322,222.5C 321.77,210.766 320.937,199.099 319.5,187.5C 323.065,200.235 326.065,213.235 328.5,226.5C 327.596,235.163 324.596,242.83 319.5,249.5C 317.708,248.691 315.708,248.191 313.5,248C 314.308,247.692 314.975,247.192 315.5,246.5C 308.815,240.319 301.481,234.986 293.5,230.5C 289.612,227.716 287.612,224.049 287.5,219.5C 285.268,211.806 283.601,203.973 282.5,196C 282.453,193.744 281.453,192.244 279.5,191.5C 278.373,187.317 277.373,182.983 276.5,178.5 Z"/></g>
<g><path style="opacity:1" fill="#2e50d0" d="M 79.5,184.5 C 79.8333,184.5 80.1667,184.5 80.5,184.5C 80.5,185.833 80.5,187.167 80.5,188.5C 78.6432,194.005 77.3099,199.672 76.5,205.5C 75.7254,210.173 74.5587,214.839 73,219.5C 72.501,223.821 72.3343,228.154 72.5,232.5C 71.3158,225.634 71.4825,218.634 73,211.5C 75.4895,202.565 77.6562,193.565 79.5,184.5 Z"/></g>
<g><path style="opacity:1" fill="#7977da" d="M 166.5,232.5 C 170.664,233.328 174.664,234.662 178.5,236.5C 182.894,239.26 187.227,241.926 191.5,244.5C 182.732,241.282 174.399,237.282 166.5,232.5 Z"/></g>
<g><path style="opacity:1" fill="#3654c9" d="M 119.5,234.5 C 123.073,238.644 126.406,242.978 129.5,247.5C 126.473,245.14 123.806,242.473 121.5,239.5C 120.559,237.95 119.893,236.284 119.5,234.5 Z"/></g>
<g><path style="opacity:1" fill="#ce315c" d="M 287.5,219.5 C 287.612,224.049 289.612,227.716 293.5,230.5C 301.481,234.986 308.815,240.319 315.5,246.5C 314.975,247.192 314.308,247.692 313.5,248C 315.708,248.191 317.708,248.691 319.5,249.5C 317.397,252.72 315.064,255.72 312.5,258.5C 309.933,259.673 307.267,260.839 304.5,262C 303.167,262.667 303.167,263.333 304.5,264C 301.833,264.667 299.167,264.667 296.5,264C 295.167,262 293.833,260 292.5,258C 293.354,256.119 293.021,254.286 291.5,252.5C 290.675,251.614 289.675,251.281 288.5,251.5C 288.649,250.448 288.483,249.448 288,248.5C 283.642,246.121 283.475,243.288 287.5,240C 285.866,239.506 284.199,239.34 282.5,239.5C 281.448,234.462 282.948,230.462 287,227.5C 287.497,224.854 287.664,222.187 287.5,219.5 Z"/></g>
<g><path style="opacity:1" fill="#224cd7" d="M 72.5,232.5 C 74.0294,235.247 75.3628,238.247 76.5,241.5C 77.1667,240.5 77.8333,239.5 78.5,238.5C 78.7572,241.603 79.2572,244.603 80,247.5C 83.2802,251.753 86.7802,255.753 90.5,259.5C 91.086,259.291 91.586,258.957 92,258.5C 93.2541,263.997 96.2541,268.331 101,271.5C 102.012,274.31 103.178,276.976 104.5,279.5C 93.3876,267.294 83.2209,254.294 74,240.5C 73.433,237.832 72.933,235.166 72.5,232.5 Z"/></g>
<g><path style="opacity:1" fill="#c93968" d="M 279.5,191.5 C 281.453,192.244 282.453,193.744 282.5,196C 283.601,203.973 285.268,211.806 287.5,219.5C 287.664,222.187 287.497,224.854 287,227.5C 282.948,230.462 281.448,234.462 282.5,239.5C 284.199,239.34 285.866,239.506 287.5,240C 283.475,243.288 283.642,246.121 288,248.5C 288.483,249.448 288.649,250.448 288.5,251.5C 289.675,251.281 290.675,251.614 291.5,252.5C 293.021,254.286 293.354,256.119 292.5,258C 293.833,260 295.167,262 296.5,264C 299.167,264.667 301.833,264.667 304.5,264C 303.167,263.333 303.167,262.667 304.5,262C 307.267,260.839 309.933,259.673 312.5,258.5C 309.805,261.526 307.138,264.526 304.5,267.5C 303.167,267.5 301.833,267.5 300.5,267.5C 300.5,268.5 300.5,269.5 300.5,270.5C 296.939,271.896 294.272,270.73 292.5,267C 288.93,264.73 285.263,262.563 281.5,260.5C 280.05,259.15 279.383,257.484 279.5,255.5C 276.833,255.5 274.167,255.5 271.5,255.5C 271.523,253.4 270.856,251.567 269.5,250C 270.906,248.022 271.906,245.855 272.5,243.5C 276.07,237.756 280.237,232.422 285,227.5C 285.923,225.966 286.423,224.299 286.5,222.5C 283.705,212.259 281.371,201.925 279.5,191.5 Z"/></g>
<g><path style="opacity:1" fill="#bb3c75" d="M 272.5,243.5 C 271.906,245.855 270.906,248.022 269.5,250C 270.856,251.567 271.523,253.4 271.5,255.5C 274.167,255.5 276.833,255.5 279.5,255.5C 279.383,257.484 280.05,259.15 281.5,260.5C 285.263,262.563 288.93,264.73 292.5,267C 294.272,270.73 296.939,271.896 300.5,270.5C 300.5,269.5 300.5,268.5 300.5,267.5C 301.833,267.5 303.167,267.5 304.5,267.5C 302.207,271.758 299.207,275.424 295.5,278.5C 289.985,274.997 284.985,270.83 280.5,266C 276.59,263.868 272.59,262.035 268.5,260.5C 268.5,259.5 268.5,258.5 268.5,257.5C 266.61,257.703 265.11,257.037 264,255.5C 263.617,256.056 263.117,256.389 262.5,256.5C 265.074,251.591 268.408,247.258 272.5,243.5 Z"/></g>
<g><path style="opacity:1" fill="#a53b85" d="M 295.5,278.5 C 293.518,281.81 291.185,284.81 288.5,287.5C 288.167,287.5 287.833,287.5 287.5,287.5C 287.5,286.5 287.5,285.5 287.5,284.5C 284.649,283.677 281.982,282.344 279.5,280.5C 275.044,276.942 271.044,272.942 267.5,268.5C 260.993,266.37 259.326,262.37 262.5,256.5C 263.117,256.389 263.617,256.056 264,255.5C 265.11,257.037 266.61,257.703 268.5,257.5C 268.5,258.5 268.5,259.5 268.5,260.5C 272.59,262.035 276.59,263.868 280.5,266C 284.985,270.83 289.985,274.997 295.5,278.5 Z"/></g>
<g><path style="opacity:1" fill="#1d49e5" d="M 131.5,249.5 C 141.314,261.129 150.647,273.129 159.5,285.5C 157.751,283.469 155.751,283.135 153.5,284.5C 154.218,282.863 154.384,281.197 154,279.5C 151.656,276.739 148.822,274.572 145.5,273C 146.863,270.871 146.529,270.371 144.5,271.5C 143.476,270.147 142.143,269.48 140.5,269.5C 140.357,267.738 140.691,266.071 141.5,264.5C 140.68,262.889 139.346,262.222 137.5,262.5C 137.649,261.448 137.483,260.448 137,259.5C 136.667,259.833 136.333,260.167 136,260.5C 133.578,256.513 131.578,256.846 130,261.5C 127.919,259.676 128.085,258.009 130.5,256.5C 129.571,254.678 130.238,253.345 132.5,252.5C 131.873,251.583 131.539,250.583 131.5,249.5 Z"/></g>
<g><path style="opacity:1" fill="#8f3c95" d="M 262.5,256.5 C 259.326,262.37 260.993,266.37 267.5,268.5C 271.044,272.942 275.044,276.942 279.5,280.5C 281.982,282.344 284.649,283.677 287.5,284.5C 287.5,285.5 287.5,286.5 287.5,287.5C 286.085,288.289 284.585,288.956 283,289.5C 280.182,287.419 277.182,287.085 274,288.5C 272.688,283.75 269.521,281.25 264.5,281C 263.833,280 263.167,279 262.5,278C 258.588,275.568 254.588,273.402 250.5,271.5C 253.747,265.917 257.747,260.917 262.5,256.5 Z"/></g>
<g><path style="opacity:1" fill="#7c3fa1" d="M 250.5,271.5 C 254.588,273.402 258.588,275.568 262.5,278C 263.167,279 263.833,280 264.5,281C 269.521,281.25 272.688,283.75 274,288.5C 277.182,287.085 280.182,287.419 283,289.5C 284.585,288.956 286.085,288.289 287.5,287.5C 287.833,287.5 288.167,287.5 288.5,287.5C 283.182,294.814 277.516,301.814 271.5,308.5C 272.588,306.417 273.588,304.251 274.5,302C 273.874,301.25 273.374,300.416 273,299.5C 268.214,296.382 264.047,292.549 260.5,288C 258.112,287.697 255.945,286.863 254,285.5C 253.282,286.451 252.449,286.617 251.5,286C 253.229,284.211 253.896,282.044 253.5,279.5C 251.738,279.643 250.071,279.309 248.5,278.5C 245.17,280.169 242.503,282.502 240.5,285.5C 239.833,285.5 239.167,285.5 238.5,285.5C 242.155,280.514 246.155,275.847 250.5,271.5 Z"/></g>
<g><path style="opacity:1" fill="#554ac3" d="M 160.5,285.5 C 186.5,285.5 212.5,285.5 238.5,285.5C 239.167,285.5 239.833,285.5 240.5,285.5C 241.807,286.153 243.14,286.82 244.5,287.5C 245.935,285.599 247.602,285.266 249.5,286.5C 248.047,288.644 248.38,290.477 250.5,292C 253.833,294.333 257.167,296.667 260.5,299C 261.743,300.154 262.743,301.488 263.5,303C 265.256,303.202 266.922,303.702 268.5,304.5C 266.711,307.556 266.044,310.889 266.5,314.5C 265.08,318.217 262.413,320.55 258.5,321.5C 258.5,320.5 258.5,319.5 258.5,318.5C 259.552,318.649 260.552,318.483 261.5,318C 259.405,315.71 258.738,313.21 259.5,310.5C 260.728,313.071 262.728,314.405 265.5,314.5C 264.647,311.637 262.98,309.304 260.5,307.5C 259.311,306.571 257.978,306.238 256.5,306.5C 256.628,304.345 256.128,302.345 255,300.5C 249.53,297.509 244.696,293.676 240.5,289C 232.561,287.679 224.561,287.179 216.5,287.5C 198.523,286.569 180.523,286.235 162.5,286.5C 161.508,286.672 160.842,286.338 160.5,285.5 Z"/></g>
<g><path style="opacity:1" fill="#1e4bde" d="M 104.5,279.5 C 106.134,280.207 107.468,281.373 108.5,283C 109.448,283.483 110.448,283.649 111.5,283.5C 111.5,284.833 111.5,286.167 111.5,287.5C 116.555,288.251 118.555,291.251 117.5,296.5C 112.814,291.142 108.481,285.475 104.5,279.5 Z"/></g>
<g><path style="opacity:1" fill="#653fb3" d="M 271.5,308.5 C 270.581,311.089 268.914,313.089 266.5,314.5C 266.044,310.889 266.711,307.556 268.5,304.5C 266.922,303.702 265.256,303.202 263.5,303C 262.743,301.488 261.743,300.154 260.5,299C 257.167,296.667 253.833,294.333 250.5,292C 248.38,290.477 248.047,288.644 249.5,286.5C 247.602,285.266 245.935,285.599 244.5,287.5C 243.14,286.82 241.807,286.153 240.5,285.5C 242.503,282.502 245.17,280.169 248.5,278.5C 250.071,279.309 251.738,279.643 253.5,279.5C 253.896,282.044 253.229,284.211 251.5,286C 252.449,286.617 253.282,286.451 254,285.5C 255.945,286.863 258.112,287.697 260.5,288C 264.047,292.549 268.214,296.382 273,299.5C 273.374,300.416 273.874,301.25 274.5,302C 273.588,304.251 272.588,306.417 271.5,308.5 Z"/></g>
<g><path style="opacity:1" fill="#2642e0" d="M 162.5,286.5 C 180.523,286.235 198.523,286.569 216.5,287.5C 218.607,288.468 220.941,288.802 223.5,288.5C 223.354,290.942 224.187,291.609 226,290.5C 230.658,295.817 235.991,300.484 242,304.5C 242.333,304.167 242.667,303.833 243,303.5C 245.397,308.896 249.397,312.562 255,314.5C 255.585,316.129 256.419,317.629 257.5,319C 256.99,320.826 256.156,320.993 255,319.5C 254.769,321.157 253.935,322.491 252.5,323.5C 251.078,323.709 249.745,324.209 248.5,325C 217.502,325.5 186.502,325.667 155.5,325.5C 185.997,324.668 216.664,324.168 247.5,324C 245.409,322.274 243.076,321.107 240.5,320.5C 240.736,317.774 239.903,315.441 238,313.5C 237.667,313.833 237.333,314.167 237,314.5C 233.029,312.028 229.195,309.362 225.5,306.5C 223.637,304.107 222.304,301.44 221.5,298.5C 219.958,297.253 218.458,297.253 217,298.5C 214.945,296.445 212.612,294.779 210,293.5C 209.667,293.833 209.333,294.167 209,294.5C 206.797,290.307 203.297,288.14 198.5,288C 186.326,287.831 174.326,287.331 162.5,286.5 Z"/></g>
<g><path style="opacity:1" fill="#4140ce" d="M 216.5,287.5 C 224.561,287.179 232.561,287.679 240.5,289C 244.696,293.676 249.53,297.509 255,300.5C 256.128,302.345 256.628,304.345 256.5,306.5C 257.978,306.238 259.311,306.571 260.5,307.5C 262.98,309.304 264.647,311.637 265.5,314.5C 262.728,314.405 260.728,313.071 259.5,310.5C 258.738,313.21 259.405,315.71 261.5,318C 260.552,318.483 259.552,318.649 258.5,318.5C 258.5,319.5 258.5,320.5 258.5,321.5C 257.167,322.167 255.833,322.833 254.5,323.5C 253.833,323.5 253.167,323.5 252.5,323.5C 253.935,322.491 254.769,321.157 255,319.5C 256.156,320.993 256.99,320.826 257.5,319C 256.419,317.629 255.585,316.129 255,314.5C 249.397,312.562 245.397,308.896 243,303.5C 242.667,303.833 242.333,304.167 242,304.5C 235.991,300.484 230.658,295.817 226,290.5C 224.187,291.609 223.354,290.942 223.5,288.5C 220.941,288.802 218.607,288.468 216.5,287.5 Z"/></g>
<g><path style="opacity:1" fill="#284dd2" d="M 133.5,316.5 C 135.527,316.338 137.527,316.505 139.5,317C 139.167,317.333 138.833,317.667 138.5,318C 140.886,320.759 143.886,322.259 147.5,322.5C 148.167,323.5 148.833,324.5 149.5,325.5C 143.277,323.99 137.944,320.99 133.5,316.5 Z"/></g>
<g><path style="opacity:1" fill="#0c44f4" d="M 159.5,285.5 C 159.833,285.5 160.167,285.5 160.5,285.5C 160.842,286.338 161.508,286.672 162.5,286.5C 174.326,287.331 186.326,287.831 198.5,288C 203.297,288.14 206.797,290.307 209,294.5C 209.333,294.167 209.667,293.833 210,293.5C 212.612,294.779 214.945,296.445 217,298.5C 218.458,297.253 219.958,297.253 221.5,298.5C 222.304,301.44 223.637,304.107 225.5,306.5C 229.195,309.362 233.029,312.028 237,314.5C 237.333,314.167 237.667,313.833 238,313.5C 239.903,315.441 240.736,317.774 240.5,320.5C 243.076,321.107 245.409,322.274 247.5,324C 216.664,324.168 185.997,324.668 155.5,325.5C 153.833,325.5 152.167,325.5 150.5,325.5C 150.167,325.5 149.833,325.5 149.5,325.5C 148.833,324.5 148.167,323.5 147.5,322.5C 174.095,321.676 200.761,321.176 227.5,321C 226.271,320.219 224.938,319.719 223.5,319.5C 221.043,320.167 219.043,319.167 217.5,316.5C 218.025,315.808 218.692,315.308 219.5,315C 209.431,305.897 198.431,298.064 186.5,291.5C 185.614,290.675 185.281,289.675 185.5,288.5C 177.16,288.666 168.827,288.5 160.5,288C 159.975,287.308 159.308,286.808 158.5,286.5C 156.36,287.42 154.693,286.754 153.5,284.5C 155.751,283.135 157.751,283.469 159.5,285.5 Z"/></g>
<g><path style="opacity:1" fill="#2b4fbe" d="M 252.5,323.5 C 253.167,323.5 253.833,323.5 254.5,323.5C 253.158,324.793 251.491,325.626 249.5,326C 216.331,326.831 183.331,326.664 150.5,325.5C 152.167,325.5 153.833,325.5 155.5,325.5C 186.502,325.667 217.502,325.5 248.5,325C 249.745,324.209 251.078,323.709 252.5,323.5 Z"/></g>
</svg>
